<svg width="100" height="64" viewBox="0 0 100 64" fill="none" xmlns="http://www.w3.org/2000/svg">
<path d="M27.1072 53.0979L26.4742 52.8869C25.8842 52.6969 25.4949 52.1347 25.5248 51.5155V39.1732H19.4064C8.68648 39.1714 -0.00201877 30.4796 3.51848e-07 19.7597C0.00201948 9.04257 8.6893 0.355291 19.4064 0.353271H49.9982C60.7179 0.355291 69.4066 9.04702 69.4046 19.7668C69.4026 30.4839 60.7153 39.1712 49.9982 39.1732H41.0317L28.2675 52.5703C27.9645 52.8911 27.5479 53.0805 27.1072 53.0979ZM19.4064 3.51805C10.4344 3.51825 3.16134 10.7917 3.16155 19.7637C3.16175 28.7355 10.4346 36.0084 19.4064 36.0086H27.1072C27.981 36.0086 28.6895 36.7171 28.6895 37.591V47.5069L39.2385 36.536C39.5256 36.1937 39.9522 35.9997 40.3989 36.0086H49.9984C58.9704 36.0042 66.24 28.7272 66.2356 19.7552C66.2311 10.7895 58.9641 3.52249 49.9984 3.51805H19.4064Z" fill="#31B8BF"/>
<path d="M72.8891 63.6468C72.4484 63.6294 72.0318 63.44 71.7288 63.1194L58.9647 49.7223H49.9981C46.2446 49.7455 42.5702 48.6432 39.4492 46.5577C38.7268 46.067 38.498 45.1061 38.9218 44.3425C39.4076 43.616 40.3903 43.421 41.1168 43.9068C41.1237 43.9114 41.1303 43.9159 41.1372 43.9207C43.7782 45.6285 46.8533 46.5438 49.9983 46.5579H59.5979C60.0445 46.5492 60.4711 46.743 60.7582 47.0853L71.3072 58.0562V48.1403C71.3072 47.2664 72.0157 46.5579 72.8895 46.5579H80.5903C89.5623 46.5579 96.8356 39.2846 96.8356 30.3126C96.8356 21.3406 89.5623 14.0673 80.5903 14.0673H73.2061C72.3323 14.0673 71.6238 13.3588 71.6238 12.4849C71.6238 11.6111 72.3323 10.9026 73.2061 10.9026H80.5903C91.31 10.9026 100 19.5927 100 30.3126C100 41.0326 91.3102 49.7227 80.5903 49.7227H74.4719V62.065C74.5018 62.684 74.1125 63.2464 73.5225 63.4364L72.8891 63.6468Z" fill="#31B8BF"/>
<path d="M28.3729 16.0711C28.3834 15.2086 28.6394 14.367 29.1113 13.6449C29.6787 12.7699 30.4837 12.0745 31.4321 11.6406C32.4677 11.078 33.6293 10.7877 34.8077 10.7966C35.9434 10.7544 37.0705 11.009 38.0779 11.535C38.964 11.9226 39.7293 12.5423 40.293 13.3283C40.8033 14.0718 41.0621 14.959 41.0314 15.8601C41.0684 16.5198 40.9224 17.177 40.6094 17.7589C40.3181 18.2595 39.9635 18.7202 39.5546 19.1303L37.4449 21.1347L36.7065 21.7677L36.2845 22.4007C36.2556 22.5586 36.1825 22.705 36.0735 22.8227C36.0735 23.0337 35.9681 23.3501 35.9681 23.7721C35.859 24.5464 35.1651 25.1015 34.3857 25.0379C33.9895 25.0562 33.6049 24.9024 33.3309 24.6159C32.9943 24.2805 32.8047 23.8252 32.8035 23.3501C32.8201 22.6959 32.9634 22.051 33.2255 21.4513C33.4026 20.9376 33.6907 20.4694 34.0695 20.0799L35.5463 18.7085L36.7067 17.6537L37.3397 16.8097C37.7431 15.908 37.5315 14.8498 36.8123 14.1725C36.2546 13.6936 35.543 13.4315 34.8079 13.4341C34.0693 13.4109 33.3507 13.6758 32.8035 14.1725C32.2894 14.7979 31.8961 15.5132 31.6431 16.2823C31.587 17.096 30.8821 17.7102 30.0682 17.6541C30.0658 17.6539 30.0631 17.6537 30.0607 17.6535C29.6308 17.689 29.207 17.535 28.9003 17.2315C28.596 16.9171 28.4099 16.5073 28.3729 16.0711ZM34.5967 29.9956C34.0893 29.9997 33.5992 29.8113 33.2253 29.4682C32.7956 29.1478 32.5576 28.6317 32.5923 28.0968C32.6046 27.5719 32.8338 27.0754 33.2253 26.7254C33.5861 26.3618 34.0852 26.17 34.5967 26.198C35.5871 26.1964 36.3915 26.9978 36.3931 27.9882C36.3931 28.0243 36.3921 28.0607 36.3901 28.0968C36.45 28.6127 36.253 29.1254 35.8627 29.4682C35.5071 29.7735 35.0639 29.9583 34.5967 29.9956Z" fill="#00EFD1"/>
</svg>
