<svg width="150" height="105" viewBox="0 0 150 105" fill="none" xmlns="http://www.w3.org/2000/svg">
<path d="M145.655 7.1314H9.18916C7.09526 7.1314 5.39783 8.82184 5.39783 10.9071V100.485C5.39783 102.57 7.09526 104.26 9.18916 104.26H145.655C147.749 104.26 149.447 102.57 149.447 100.485V10.9071C149.447 8.82184 147.749 7.1314 145.655 7.1314Z" fill="#F2F2F2"/>
<path d="M141.258 1H4.79133C2.69744 1 1 2.69044 1 4.7757V94.3533C1 96.4386 2.69744 98.129 4.79133 98.129H141.258C143.352 98.129 145.049 96.4386 145.049 94.3533V4.7757C145.049 2.69044 143.352 1 141.258 1Z" stroke="#A0A0A0" stroke-miterlimit="10"/>
<path d="M1 10.312H145.049" stroke="#A0A0A0" stroke-miterlimit="10"/>
<path opacity="0.3" d="M124.997 32.1436H88.4834C87.7178 32.1436 87.0972 32.7617 87.0972 33.5241V36.7971C87.0972 37.5596 87.7178 38.1776 88.4834 38.1776H124.997C125.763 38.1776 126.383 37.5596 126.383 36.7971V33.5241C126.383 32.7617 125.763 32.1436 124.997 32.1436Z" fill="#31B8BF"/>
<path opacity="0.3" d="M132.522 48.8833H80.9586C80.1929 48.8833 79.5723 49.5014 79.5723 50.2638V52.3689C79.5723 53.1314 80.1929 53.7495 80.9586 53.7495H132.522C133.288 53.7495 133.908 53.1314 133.908 52.3689V50.2638C133.908 49.5014 133.288 48.8833 132.522 48.8833Z" fill="#31B8BF"/>
<path opacity="0.3" d="M132.522 62.1193H80.9586C80.1929 62.1193 79.5723 62.7374 79.5723 63.4999V65.605C79.5723 66.3674 80.1929 66.9855 80.9586 66.9855H132.522C133.288 66.9855 133.908 66.3674 133.908 65.605V63.4999C133.908 62.7374 133.288 62.1193 132.522 62.1193Z" fill="#31B8BF"/>
<path opacity="0.3" d="M132.522 75.3553H80.9586C80.1929 75.3553 79.5723 75.9734 79.5723 76.7359V78.841C79.5723 79.6034 80.1929 80.2215 80.9586 80.2215H132.522C133.288 80.2215 133.908 79.6034 133.908 78.841V76.7359C133.908 75.9734 133.288 75.3553 132.522 75.3553Z" fill="#31B8BF"/>
<path d="M126.951 30.1971H90.438C89.6723 30.1971 89.0517 30.8152 89.0517 31.5777V34.8506C89.0517 35.6131 89.6723 36.2312 90.438 36.2312H126.951C127.717 36.2312 128.338 35.6131 128.338 34.8506V31.5777C128.338 30.8152 127.717 30.1971 126.951 30.1971Z" stroke="#A0A0A0" stroke-miterlimit="10"/>
<path d="M134.477 46.9368H82.913C82.1474 46.9368 81.5268 47.5549 81.5268 48.3173V50.4224C81.5268 51.1849 82.1474 51.803 82.913 51.803H134.477C135.242 51.803 135.863 51.1849 135.863 50.4224V48.3173C135.863 47.5549 135.242 46.9368 134.477 46.9368Z" stroke="#A0A0A0" stroke-miterlimit="10"/>
<path d="M134.477 60.1729H82.913C82.1474 60.1729 81.5268 60.7909 81.5268 61.5534V63.6585C81.5268 64.421 82.1474 65.039 82.913 65.039H134.477C135.242 65.039 135.863 64.421 135.863 63.6585V61.5534C135.863 60.7909 135.242 60.1729 134.477 60.1729Z" stroke="#A0A0A0" stroke-miterlimit="10"/>
<path d="M134.477 73.4089H82.913C82.1474 73.4089 81.5268 74.027 81.5268 74.7894V76.8945C81.5268 77.657 82.1474 78.2751 82.913 78.2751H134.477C135.242 78.2751 135.863 77.657 135.863 76.8945V74.7894C135.863 74.027 135.242 73.4089 134.477 73.4089Z" stroke="#A0A0A0" stroke-miterlimit="10"/>
<path opacity="0.3" d="M11.9455 9.75912C13.5647 9.75912 14.8773 8.45192 14.8773 6.83941C14.8773 5.2269 13.5647 3.9197 11.9455 3.9197C10.3263 3.9197 9.01373 5.2269 9.01373 6.83941C9.01373 8.45192 10.3263 9.75912 11.9455 9.75912Z" fill="#31B8BF"/>
<path opacity="0.3" d="M20.1544 9.75912C21.7736 9.75912 23.0862 8.45192 23.0862 6.83941C23.0862 5.2269 21.7736 3.9197 20.1544 3.9197C18.5352 3.9197 17.2226 5.2269 17.2226 6.83941C17.2226 8.45192 18.5352 9.75912 20.1544 9.75912Z" fill="#31B8BF"/>
<path opacity="0.3" d="M28.3636 9.75912C29.9827 9.75912 31.2954 8.45192 31.2954 6.83941C31.2954 5.2269 29.9827 3.9197 28.3636 3.9197C26.7444 3.9197 25.4318 5.2269 25.4318 6.83941C25.4318 8.45192 26.7444 9.75912 28.3636 9.75912Z" fill="#31B8BF"/>
<path d="M13.1181 8.59124C14.7373 8.59124 16.0499 7.28404 16.0499 5.67153C16.0499 4.05902 14.7373 2.75182 13.1181 2.75182C11.4989 2.75182 10.1863 4.05902 10.1863 5.67153C10.1863 7.28404 11.4989 8.59124 13.1181 8.59124Z" stroke="#A0A0A0" stroke-miterlimit="10"/>
<path d="M21.3272 8.59124C22.9464 8.59124 24.259 7.28404 24.259 5.67153C24.259 4.05902 22.9464 2.75182 21.3272 2.75182C19.708 2.75182 18.3954 4.05902 18.3954 5.67153C18.3954 7.28404 19.708 8.59124 21.3272 8.59124Z" stroke="#A0A0A0" stroke-miterlimit="10"/>
<path d="M29.5363 8.59124C31.1555 8.59124 32.4681 7.28404 32.4681 5.67153C32.4681 4.05902 31.1555 2.75182 29.5363 2.75182C27.9172 2.75182 26.6046 4.05902 26.6046 5.67153C26.6046 7.28404 27.9172 8.59124 29.5363 8.59124Z" stroke="#A0A0A0" stroke-miterlimit="10"/>
<path d="M46.5121 94.0415C46.0212 91.7897 45.8911 88.7141 46.0562 86.5747C46.0562 86.5747 43.5742 75.716 41.6213 74.7029L41.6207 74.7035C41.5908 74.7418 40.6431 75.9792 40.5229 79.808C40.4008 83.6976 39.0179 86.2502 39.0179 86.2502C39.0179 86.2502 39.4654 91.0984 39.2096 94.0415L46.5121 94.0415Z" fill="#31B8BF"/>
<path d="M64.567 24.9417H19.5235C18.9134 24.9416 18.3092 25.0613 17.7455 25.2939C17.1818 25.5264 16.6696 25.8672 16.2381 26.2969C15.8067 26.7266 15.4644 27.2366 15.2309 27.798C14.9974 28.3594 14.8773 28.9611 14.8773 29.5687V89.4144C14.8773 90.022 14.9974 90.6237 15.2309 91.1851C15.4644 91.7465 15.8067 92.2566 16.2381 92.6862C16.6696 93.1159 17.1818 93.4567 17.7455 93.6893C18.3092 93.9218 18.9134 94.0415 19.5235 94.0415H35.3269C34.7991 91.8615 34.143 88.4569 34.8075 86.0897L34.8072 86.0881L34.8076 86.0891C34.8386 85.9786 34.8716 85.8697 34.9085 85.764C35.3649 84.2277 35.517 82.6176 35.3564 81.0235C35.6498 79.6614 35.6498 78.2529 35.3564 76.8908C34.8682 74.6221 34.5265 72.3934 34.5265 72.3934C34.5265 72.3934 34.2573 69.3954 34.4923 67.5576C34.4975 67.5172 34.5036 67.4789 34.5092 67.4397C34.4263 67.4209 34.3798 67.4101 34.3798 67.4101C34.3798 67.4101 35.0715 64.2903 35.3155 62.305C35.3732 61.8363 35.449 61.2421 35.5311 60.6087C35.3058 60.5714 35.084 60.5154 34.868 60.4412C32.6711 59.6714 31.9794 52.7025 31.9794 52.7025V50.4943C31.9794 50.4943 31.2471 47.1112 33.8102 45.6121C36.2784 44.1685 37.2638 43.7734 37.3335 43.7461C37.3523 43.7327 37.3707 43.7206 37.3898 43.7058C37.6688 43.4877 37.8896 43.2047 38.0328 42.8817C38.0362 42.8261 38.037 42.7708 38.0352 42.7158C37.9935 41.9243 37.4402 41.2044 36.9152 40.5762C36.4674 40.0405 36.0196 39.5047 35.5718 38.969C35.4183 38.8094 35.3004 38.6194 35.2258 38.4113C35.1974 38.2965 35.1851 38.1784 35.1892 38.0602C35.1889 38.0165 35.1891 37.9728 35.19 37.9292C35.1973 37.5297 35.2082 37.1304 35.2227 36.7311C35.2353 36.3822 35.3235 35.942 35.6665 35.8704C35.8449 35.8331 36.0811 35.8981 36.1754 35.7427C36.207 35.6787 36.2151 35.6056 36.1982 35.5363C36.1971 35.5415 36.1968 35.5469 36.1953 35.552C36.1941 35.5455 36.193 35.5389 36.1918 35.5325C36.1212 35.2528 36.0786 34.9668 36.0647 34.6787C36.0609 34.5487 36.0795 34.419 36.1198 34.2953C36.3185 33.7162 37.0028 33.4786 37.6074 33.3693C38.2121 33.2601 38.8909 33.1661 39.2704 32.6847C39.372 32.5249 39.4822 32.3706 39.6005 32.2227C39.7746 32.065 39.9885 31.9576 40.2193 31.9119C40.9699 31.7227 41.7628 31.7928 42.4682 32.1106C42.7607 32.2435 43.0545 32.4225 43.3754 32.4023C43.7086 32.3813 43.9933 32.1477 44.3223 32.0908C44.8538 31.999 45.3619 32.3956 45.6238 32.8652C45.7901 33.1639 45.8733 33.5015 45.8648 33.8429C45.8711 34.1829 45.7479 34.5126 45.52 34.7658C45.2913 35.0074 44.95 35.1734 44.855 35.4917C44.8163 35.6213 44.8253 35.7608 44.7911 35.8916C44.7868 35.908 44.7799 35.9233 44.7743 35.9391C44.7806 35.9472 44.7874 35.9549 44.7936 35.963C45.1937 36.488 45.4618 37.1008 45.5757 37.75C45.6896 38.3993 45.6459 39.0662 45.4482 39.6952C45.2506 40.3242 44.9048 40.897 44.4396 41.3658C43.9744 41.8346 43.4034 42.1858 42.7742 42.3901C42.7726 42.4311 42.771 42.4721 42.7712 42.5133C42.7594 42.7688 42.8029 43.0237 42.8987 43.261C42.9944 43.4982 43.1402 43.7122 43.3262 43.8885L46.9513 45.369C46.9513 45.369 49.1337 45.1055 49.9212 48.3489C50.0475 48.888 50.0929 49.4428 50.0561 49.9952C50.0275 50.4842 50.0942 51.3452 50.6536 52.4594C51.5486 54.2421 51.3452 58.3343 49.5144 58.7395C47.7803 59.1232 47.1057 58.962 47.0392 58.9439L47.0353 59.0155C47.0639 59.7834 47.3383 66.4061 48.3346 67.2075C48.6101 67.4291 48.5575 67.5788 48.3314 67.6796L48.332 67.6803C48.332 67.6803 48.3338 67.7228 48.338 67.7994C48.368 68.2838 48.5218 70.1283 49.1888 71.1779C49.962 72.3934 49.8808 79.4032 49.8808 79.4032L50.4093 83.5359C50.4093 83.5359 50.084 86.0885 50.4093 86.534C50.5941 86.7866 50.8179 90.7001 50.9771 94.0414H64.567C65.7993 94.0414 66.981 93.5539 67.8524 92.6862C68.7237 91.8185 69.2132 90.6415 69.2132 89.4144V29.5687C69.2132 28.9611 69.0931 28.3594 68.8596 27.798C68.6261 27.2366 68.2838 26.7266 67.8524 26.2969C67.4209 25.8672 66.9087 25.5264 66.345 25.2939C65.7813 25.0613 65.1771 24.9416 64.567 24.9417Z" fill="#31B8BF"/>
<path d="M59.876 19.6862H14.8325C12.2665 19.6862 10.1863 21.7578 10.1863 24.3133V84.1589C10.1863 86.7144 12.2665 88.786 14.8325 88.786H59.876C62.4421 88.786 64.5223 86.7144 64.5223 84.1589V24.3133C64.5223 21.7578 62.4421 19.6862 59.876 19.6862Z" stroke="#A0A0A0" stroke-miterlimit="10"/>
</svg>
