<svg width="149" height="103" viewBox="0 0 149 103" fill="none" xmlns="http://www.w3.org/2000/svg">
<path d="M148.24 10.8421H0V103H148.24V10.8421Z" fill="#E6E6E6"/>
<path d="M37.091 28.5961H9.94078V46.2145H37.091V28.5961Z" fill="white"/>
<path d="M70.8272 28.5961H43.677V46.2145H70.8272V28.5961Z" fill="white"/>
<path d="M104.563 28.5961H77.4131V46.2145H104.563V28.5961Z" fill="white"/>
<path d="M138.3 28.5961H111.149V46.2145H138.3V28.5961Z" fill="white"/>
<path d="M37.091 53.5329H9.94078V71.1513H37.091V53.5329Z" fill="white"/>
<path d="M70.8272 53.5329H43.677V71.1513H70.8272V53.5329Z" fill="white"/>
<path d="M104.563 53.5329H77.4131V71.1513H104.563V53.5329Z" fill="white"/>
<path d="M138.3 53.5329H111.149V71.1513H138.3V53.5329Z" fill="white"/>
<path d="M37.091 78.4697H9.94078V96.0881H37.091V78.4697Z" fill="white"/>
<path d="M70.8272 78.4697H43.677V96.0881H70.8272V78.4697Z" fill="white"/>
<path d="M104.563 78.4697H77.4131V96.0881H104.563V78.4697Z" fill="white"/>
<path d="M138.3 78.4697H111.149V96.0881H138.3V78.4697Z" fill="white"/>
<path d="M38.8249 21.6842C41.0741 21.6842 42.8974 19.8639 42.8974 17.6184C42.8974 15.3729 41.0741 13.5526 38.8249 13.5526C36.5757 13.5526 34.7524 15.3729 34.7524 17.6184C34.7524 19.8639 36.5757 21.6842 38.8249 21.6842Z" fill="white"/>
<path d="M106.158 21.6842C108.407 21.6842 110.23 19.8639 110.23 17.6184C110.23 15.3729 108.407 13.5526 106.158 13.5526C103.908 13.5526 102.085 15.3729 102.085 17.6184C102.085 19.8639 103.908 21.6842 106.158 21.6842Z" fill="white"/>
<path d="M40.454 0H37.196V18.7026H40.454V0Z" fill="#E6E6E6"/>
<path d="M107.786 0H104.528V18.7026H107.786V0Z" fill="#E6E6E6"/>
<path d="M130.864 37.4053C130.863 38.8772 130.329 40.2992 129.362 41.41C128.394 42.5208 127.058 43.2457 125.598 43.4516C124.138 43.6575 122.653 43.3305 121.415 42.5307C120.177 41.731 119.27 40.5121 118.861 39.0981C118.451 37.6842 118.566 36.1701 119.185 34.834C119.804 33.498 120.885 32.4298 122.229 31.8257C123.574 31.2216 125.091 31.1222 126.503 31.5457C127.915 31.9692 129.127 32.8872 129.915 34.131C130.535 35.1109 130.864 36.2462 130.864 37.4053Z" fill="#31B8BF"/>
<path d="M129.915 34.131L123.872 40.1635C123.492 39.5764 121.376 36.848 121.376 36.848C121.647 36.5744 121.936 36.3193 122.242 36.0846L123.997 38.4205L129.207 33.2183C129.472 33.4995 129.709 33.8051 129.915 34.131Z" fill="white"/>
<path d="M63.3918 62.3421C63.3904 63.814 62.8569 65.236 61.8895 66.3468C60.9221 67.4576 59.5857 68.1825 58.1258 68.3884C56.6659 68.5943 55.1805 68.2673 53.9428 67.4676C52.705 66.6678 51.7979 65.4489 51.3882 64.035C50.9784 62.621 51.0935 61.1069 51.7123 59.7709C52.3312 58.4348 53.4121 57.3666 54.7566 56.7625C56.1011 56.1584 57.6188 56.059 59.0309 56.4825C60.443 56.906 61.6545 57.824 62.4429 59.0678C63.0629 60.0477 63.3919 61.183 63.3918 62.3421Z" fill="#31B8BF"/>
<path d="M62.4429 59.0678L56.3992 65.1004C56.0194 64.5133 53.9032 61.7849 53.9032 61.7849C54.1744 61.5112 54.4638 61.2562 54.7694 61.0215L56.5243 63.3574L61.7351 58.1551C61.9994 58.4363 62.2364 58.742 62.4429 59.0678Z" fill="white"/>
<path d="M29.6556 62.3421C29.6542 63.814 29.1208 65.2361 28.1534 66.3468C27.186 67.4576 25.8495 68.1826 24.3896 68.3885C22.9297 68.5944 21.4444 68.2674 20.2066 67.4676C18.9689 66.6678 18.0617 65.4489 17.652 64.035C17.2422 62.621 17.3573 61.1069 17.9762 59.7709C18.595 58.4348 19.676 57.3666 21.0205 56.7625C22.365 56.1584 23.8827 56.059 25.2948 56.4825C26.7068 56.906 27.9184 57.824 28.7068 59.0678C29.3268 60.0477 29.6558 61.1831 29.6556 62.3421Z" fill="#31B8BF"/>
<path d="M28.7067 59.0678L22.663 65.1004C22.2832 64.5133 20.167 61.7849 20.167 61.7849C20.4382 61.5112 20.7276 61.2562 21.0332 61.0215L22.788 63.3574L27.9989 58.1551C28.2632 58.4363 28.5001 58.742 28.7067 59.0678Z" fill="white"/>
</svg>
