<svg width="150" height="103" viewBox="0 0 150 103" fill="none" xmlns="http://www.w3.org/2000/svg">
<path d="M150 0H0V27.6834H150V0Z" fill="url(#paint0_linear_379_362)"/>
<path d="M148.905 0.906128H0.875977V26.2117H148.905V0.906128Z" fill="white"/>
<path d="M96.0194 6.07233H9.96777V21.1331H96.0194V6.07233Z" fill="#F5F5F5"/>
<path d="M129.4 7.03327C128.349 5.9417 127.007 5.17227 125.533 4.81538C124.059 4.45849 122.513 4.52897 121.078 5.01855C119.643 5.50813 118.377 6.39646 117.43 7.57915C116.483 8.76184 115.894 10.1897 115.732 11.6951C115.57 13.2004 115.842 14.7206 116.516 16.0771C117.189 17.4335 118.237 18.5698 119.535 19.3525C120.834 20.1351 122.329 20.5316 123.846 20.4953C125.362 20.4591 126.837 19.9915 128.096 19.1476L133.857 25.1279C133.928 25.2018 134.026 25.2445 134.129 25.2466C134.231 25.2486 134.331 25.2098 134.405 25.1386L135.841 23.7612C135.915 23.69 135.957 23.5924 135.96 23.4898C135.962 23.3872 135.923 23.288 135.851 23.214L130.091 17.2338C131.195 15.7236 131.731 13.8734 131.605 12.008C131.479 10.1427 130.698 8.38132 129.4 7.03327ZM127.606 16.6462C126.793 17.426 125.767 17.9477 124.657 18.1455C123.548 18.3432 122.404 18.2081 121.371 17.7571C120.338 17.3062 119.463 16.5597 118.855 15.6121C118.247 14.6644 117.935 13.5582 117.957 12.4333C117.979 11.3084 118.335 10.2153 118.98 9.29231C119.624 8.36928 120.529 7.65777 121.578 7.24774C122.628 6.83771 123.776 6.74758 124.877 6.98875C125.978 7.22993 126.983 7.79157 127.764 8.60266C128.812 9.69029 129.384 11.1488 129.354 12.6572C129.325 14.1657 128.696 15.6005 127.606 16.6462Z" fill="url(#paint1_linear_379_362)"/>
<path d="M119.434 10.964C118.793 10.964 118.792 11.9581 119.434 11.9581C120.075 11.9581 120.076 10.964 119.434 10.964Z" fill="url(#paint2_linear_379_362)"/>
<path d="M123.902 7.77914C123.089 7.75472 122.284 7.93737 121.561 8.30984C120.838 8.68232 120.223 9.23236 119.772 9.90807C119.5 10.3335 120.273 10.7094 120.544 10.2862C121.235 9.20654 122.549 8.52107 123.968 8.55655C124.686 8.58179 125.387 8.78366 126.008 9.14421C126.629 9.50476 127.151 10.0128 127.528 10.6233C127.8 11.071 128.513 10.6639 128.243 10.2191C127.373 8.78902 125.684 7.81941 123.902 7.77914Z" fill="url(#paint3_linear_379_362)"/>
<path d="M129.4 6.15906C128.349 5.0675 127.007 4.29806 125.533 3.94117C124.059 3.58428 122.513 3.65477 121.078 4.14434C119.643 4.63392 118.377 5.52225 117.43 6.70494C116.483 7.88763 115.894 9.31554 115.732 10.8209C115.57 12.3262 115.842 13.8464 116.516 15.2029C117.189 16.5593 118.237 17.6956 119.535 18.4783C120.834 19.2609 122.329 19.6574 123.846 19.6211C125.362 19.5849 126.837 19.1173 128.096 18.2734L133.857 24.2536C133.928 24.3276 134.026 24.3703 134.129 24.3724C134.231 24.3744 134.331 24.3356 134.405 24.2644L135.841 22.8869C135.915 22.8158 135.957 22.7182 135.96 22.6156C135.962 22.513 135.923 22.4138 135.851 22.3398L130.091 16.3596C131.195 14.8494 131.731 12.9992 131.605 11.1338C131.479 9.26846 130.698 7.50712 129.4 6.15906ZM127.606 15.772C126.793 16.5518 125.767 17.0735 124.657 17.2713C123.548 17.469 122.404 17.3339 121.371 16.8829C120.338 16.432 119.463 15.6855 118.855 14.7379C118.247 13.7902 117.935 12.684 117.957 11.5591C117.979 10.4342 118.335 9.34113 118.98 8.4181C119.624 7.49508 120.529 6.78356 121.578 6.37353C122.628 5.9635 123.776 5.87338 124.877 6.11455C125.978 6.35572 126.983 6.91736 127.764 7.72845C128.812 8.81608 129.384 10.2746 129.354 11.783C129.325 13.2915 128.696 14.7263 127.606 15.772Z" fill="#31B8BF"/>
<path d="M119.434 10.0897C118.793 10.0897 118.792 11.0839 119.434 11.0839C120.075 11.0839 120.076 10.0897 119.434 10.0897Z" fill="#31B8BF"/>
<path d="M123.902 6.90493C123.089 6.88052 122.284 7.06316 121.561 7.43564C120.838 7.80812 120.223 8.35815 119.772 9.03386C119.5 9.45926 120.273 9.83515 120.544 9.41203C121.235 8.33234 122.549 7.64687 123.968 7.68234C124.686 7.70759 125.387 7.90945 126.008 8.27C126.629 8.63055 127.151 9.13863 127.528 9.7491C127.8 10.1968 128.513 9.78971 128.243 9.34491C127.373 7.91481 125.684 6.9452 123.902 6.90493Z" fill="#31B8BF"/>
<path d="M150 41.3122H0.844482V51.4427H150V41.3122Z" fill="#E0E0E0"/>
<path d="M150 58.3109H0.844482V68.4415H150V58.3109Z" fill="#E0E0E0"/>
<path d="M150 75.3097H0.844482V85.4403H150V75.3097Z" fill="#E0E0E0"/>
<path d="M150 92.3084H0.844482V102.439H150V92.3084Z" fill="#E0E0E0"/>
<defs>
<linearGradient id="paint0_linear_379_362" x1="75" y1="27.6834" x2="75" y2="0" gradientUnits="userSpaceOnUse">
<stop stop-color="#808080" stop-opacity="0.25"/>
<stop offset="0.53514" stop-color="#808080" stop-opacity="0.12"/>
<stop offset="1" stop-color="#808080" stop-opacity="0.1"/>
</linearGradient>
<linearGradient id="paint1_linear_379_362" x1="125.829" y1="25.2466" x2="125.829" y2="4.59207" gradientUnits="userSpaceOnUse">
<stop stop-color="#B3B3B3" stop-opacity="0.25"/>
<stop offset="0.53514" stop-color="#B3B3B3" stop-opacity="0.1"/>
<stop offset="1" stop-color="#B3B3B3" stop-opacity="0.05"/>
</linearGradient>
<linearGradient id="paint2_linear_379_362" x1="119.434" y1="11.9581" x2="119.434" y2="10.964" gradientUnits="userSpaceOnUse">
<stop stop-opacity="0.12"/>
<stop offset="0.55135" stop-opacity="0.09"/>
<stop offset="1" stop-opacity="0.02"/>
</linearGradient>
<linearGradient id="paint3_linear_379_362" x1="7718.92" y1="660.6" x2="7718.92" y2="606.771" gradientUnits="userSpaceOnUse">
<stop stop-opacity="0.12"/>
<stop offset="0.55135" stop-opacity="0.09"/>
<stop offset="1" stop-opacity="0.02"/>
</linearGradient>
</defs>
</svg>
