<svg width="100" height="100" viewBox="0 0 100 100" fill="none" xmlns="http://www.w3.org/2000/svg">
<path d="M82.1641 4.33594C81.958 4.1508 81.7078 4.02168 81.4375 3.96094C80.0932 3.66414 78.7205 3.51482 77.3438 3.51563H18.8984C18.4844 3.51686 18.0877 3.68188 17.7949 3.97464C17.5022 4.2674 17.3372 4.66411 17.3359 5.07813V94.9219C17.3372 95.3359 17.5022 95.7326 17.7949 96.0254C18.0877 96.3181 18.4844 96.4832 18.8984 96.4844H81.1016C81.5156 96.4832 81.9123 96.3181 82.2051 96.0254C82.4978 95.7326 82.6628 95.3359 82.6641 94.9219V40.8359C86.6381 39.6737 90.1219 37.2413 92.5822 33.911C95.0426 30.5807 96.344 26.536 96.2873 22.3959C96.2306 18.2558 94.8188 14.2482 92.2682 10.9866C89.7176 7.72498 86.1685 5.38893 82.1641 4.33594ZM79.5391 93.3594H20.4609V6.64063H67.25C63.7733 8.82792 61.1021 12.0865 59.6394 15.9248C58.1767 19.7631 58.0019 23.9729 59.1413 27.9193C60.2807 31.8657 62.6724 35.3345 65.9559 37.8026C69.2393 40.2706 73.2362 41.604 77.3438 41.6016C78.0775 41.6004 78.8105 41.5561 79.5391 41.4688V93.3594ZM81.5156 38.3203H81.5078C81.2734 38.3828 81.0469 38.4375 80.8125 38.4922C80.5781 38.5469 80.3438 38.5859 80.1094 38.625C79.1966 38.788 78.271 38.869 77.3438 38.8672C73.2631 38.8664 69.3328 37.3267 66.3375 34.5555C63.3421 31.7843 61.502 27.9854 61.1844 23.9171C60.8669 19.8489 62.0952 15.8104 64.6242 12.608C67.1533 9.40555 70.797 7.27465 74.8281 6.64063C75.6606 6.51227 76.5015 6.44698 77.3438 6.44532C78.5102 6.44472 79.6732 6.57046 80.8125 6.82032C81.0469 6.875 81.2734 6.92969 81.5078 6.99219H81.5156C84.9678 7.91168 88.0196 9.94585 90.1965 12.7785C92.3735 15.6112 93.5537 19.0837 93.5537 22.6563C93.5537 26.2288 92.3735 29.7013 90.1965 32.534C88.0196 35.3667 84.9678 37.4008 81.5156 38.3203Z" fill="#31B8BF"/>
<path d="M31.6406 26.6602H52.4289C52.8433 26.6602 53.2407 26.4955 53.5338 26.2025C53.8268 25.9095 53.9914 25.5121 53.9914 25.0977C53.9914 24.6833 53.8268 24.2858 53.5338 23.9928C53.2407 23.6998 52.8433 23.5352 52.4289 23.5352H31.6406C31.2262 23.5352 30.8288 23.6998 30.5358 23.9928C30.2427 24.2858 30.0781 24.6833 30.0781 25.0977C30.0781 25.5121 30.2427 25.9095 30.5358 26.2025C30.8288 26.4955 31.2262 26.6602 31.6406 26.6602Z" fill="#31B8BF"/>
<path d="M31.6406 36.6211H52.4289C52.8433 36.6211 53.2407 36.4565 53.5338 36.1634C53.8268 35.8704 53.9914 35.473 53.9914 35.0586C53.9914 34.6442 53.8268 34.2468 53.5338 33.9537C53.2407 33.6607 52.8433 33.4961 52.4289 33.4961H31.6406C31.2262 33.4961 30.8288 33.6607 30.5358 33.9537C30.2427 34.2468 30.0781 34.6442 30.0781 35.0586C30.0781 35.473 30.2427 35.8704 30.5358 36.1634C30.8288 36.4565 31.2262 36.6211 31.6406 36.6211Z" fill="#31B8BF"/>
<path d="M65.625 43.457H31.6406C31.2262 43.457 30.8288 43.6217 30.5358 43.9147C30.2427 44.2077 30.0781 44.6051 30.0781 45.0195C30.0781 45.4339 30.2427 45.8314 30.5358 46.1244C30.8288 46.4174 31.2262 46.582 31.6406 46.582H65.625C66.0394 46.582 66.4368 46.4174 66.7299 46.1244C67.0229 45.8314 67.1875 45.4339 67.1875 45.0195C67.1875 44.6051 67.0229 44.2077 66.7299 43.9147C66.4368 43.6217 66.0394 43.457 65.625 43.457Z" fill="#31B8BF"/>
<path d="M65.625 53.418H31.6406C31.2262 53.418 30.8288 53.5826 30.5358 53.8756C30.2427 54.1686 30.0781 54.5661 30.0781 54.9805C30.0781 55.3949 30.2427 55.7923 30.5358 56.0853C30.8288 56.3783 31.2262 56.543 31.6406 56.543H65.625C66.0394 56.543 66.4368 56.3783 66.7299 56.0853C67.0229 55.7923 67.1875 55.3949 67.1875 54.9805C67.1875 54.5661 67.0229 54.1686 66.7299 53.8756C66.4368 53.5826 66.0394 53.418 65.625 53.418Z" fill="#31B8BF"/>
<path d="M65.625 63.3789H31.6406C31.2262 63.3789 30.8288 63.5435 30.5358 63.8366C30.2427 64.1296 30.0781 64.527 30.0781 64.9414C30.0781 65.3558 30.2427 65.7532 30.5358 66.0463C30.8288 66.3393 31.2262 66.5039 31.6406 66.5039H65.625C66.0394 66.5039 66.4368 66.3393 66.7299 66.0463C67.0229 65.7532 67.1875 65.3558 67.1875 64.9414C67.1875 64.527 67.0229 64.1296 66.7299 63.8366C66.4368 63.5435 66.0394 63.3789 65.625 63.3789Z" fill="#31B8BF"/>
<path d="M65.625 73.3398H31.6406C31.2262 73.3398 30.8288 73.5045 30.5358 73.7975C30.2427 74.0905 30.0781 74.4879 30.0781 74.9023C30.0781 75.3167 30.2427 75.7142 30.5358 76.0072C30.8288 76.3002 31.2262 76.4648 31.6406 76.4648H65.625C66.0394 76.4648 66.4368 76.3002 66.7299 76.0072C67.0229 75.7142 67.1875 75.3167 67.1875 74.9023C67.1875 74.4879 67.0229 74.0905 66.7299 73.7975C66.4368 73.5045 66.0394 73.3398 65.625 73.3398Z" fill="#31B8BF"/>
<path d="M85.6211 20.6864H78.6639V13.7291C78.6639 12.9607 78.0408 12.3376 77.2724 12.3376C76.5039 12.3376 75.8809 12.9607 75.8809 13.7291V20.6864H68.924C68.1555 20.6864 67.5325 21.3095 67.5325 22.0779C67.5325 22.8464 68.1555 23.4694 68.924 23.4694H75.8812V30.4267C75.8812 31.1951 76.5043 31.8182 77.2727 31.8182C78.0412 31.8182 78.6642 31.1951 78.6642 30.4267V23.4694H85.6215C86.3899 23.4694 87.013 22.8464 87.013 22.0779C87.013 21.3095 86.3898 20.6864 85.6211 20.6864Z" fill="#00EFD1"/>
</svg>
