<svg width="100" height="100" viewBox="0 0 100 100" fill="none" xmlns="http://www.w3.org/2000/svg">
<g clip-path="url(#clip0_379_553)">
<path d="M54.9975 85.1231H45.0018C44.039 85.1231 43.2583 84.3425 43.2583 83.3797V69.1998H29.1948C28.2987 69.2666 27.5181 68.594 27.4514 67.6977C27.4454 67.6174 27.4454 67.5367 27.4514 67.4563V57.577C27.4514 56.6142 28.232 55.8336 29.1948 55.8336H43.2583V41.6537C43.2583 40.6909 44.039 39.9102 45.0018 39.9102H54.9975C55.9603 39.9102 56.7409 40.6909 56.7409 41.6537V55.8336H70.8044C71.7673 55.8336 72.5479 56.6142 72.5479 57.577V67.4563C72.6146 68.3524 71.9421 69.1331 71.046 69.1998C70.9657 69.2058 70.885 69.2058 70.8046 69.1998H56.7412V83.3797C56.7409 84.3425 55.9603 85.1231 54.9975 85.1231ZM46.7453 81.6362H53.254V67.4563C53.254 66.4935 54.0346 65.7129 54.9975 65.7129H69.0609V59.3203H54.9975C54.0346 59.3203 53.254 58.5396 53.254 57.5768V43.397H46.7453V57.5768C46.7453 58.5396 45.9646 59.3203 45.0018 59.3203H30.9383V65.7129H45.0018C45.9646 65.7129 46.7453 66.4935 46.7453 67.4563V81.6362Z" fill="#00EFD1"/>
<path d="M84.752 100H15.2477C14.2849 100 13.5042 99.2194 13.5042 98.2566V50.0222H3.50881C2.81337 50.0053 2.1858 49.6017 1.88168 48.9762C1.63007 48.3032 1.76355 47.5466 2.23029 47.0002L48.7214 0.509104C49.4387 -0.169864 50.5612 -0.169864 51.2785 0.509104L69.0614 18.4081V10.2725C69.0614 9.30967 69.842 8.52903 70.8048 8.52903H79.1731C80.136 8.52903 80.9166 9.30967 80.9166 10.2725V30.2636L97.7696 47.0004C98.2366 47.5466 98.37 48.3032 98.1182 48.9764C97.8141 49.602 97.1863 50.0055 96.4911 50.0224H86.4954V98.2568C86.4954 99.2196 85.7148 100 84.752 100ZM16.9912 96.5133H83.0085V48.2787C83.0085 47.3159 83.7891 46.5353 84.752 46.5353H92.3067L78.0108 32.2393C77.6575 31.9054 77.4488 31.4464 77.4297 30.9608V12.0158H72.5481V22.5925C72.5946 23.3057 72.1703 23.966 71.502 24.2196C70.8649 24.451 70.1523 24.3173 69.6424 23.871L50 4.22853L7.69296 46.5355H15.2477C16.2106 46.5355 16.9912 47.3161 16.9912 48.279V96.5133Z" fill="#31B8BF"/>
</g>
<defs>
<clipPath id="clip0_379_553">
<rect width="100" height="100" fill="white"/>
</clipPath>
</defs>
</svg>
